<svg xmlns="http://www.w3.org/2000/svg" id="SvgjsSvg202293" width="4915.2" height="2050.87670234" version="1.1" xmlns:xlink="http://www.w3.org/1999/xlink" xmlns:svgjs="http://svgjs.com/svgjs"><defs id="SvgjsDefs202294"></defs><g id="SvgjsG202295" transform="translate(328, 328) scale(34.4)" opacity="1"><defs id="SvgjsDefs59559"></defs><g id="SvgjsG59560" transform="scale(0.2600616031586924)" opacity="1"><g id="SvgjsG59561" class="jYNZerlr7" transform="translate(0, 0) scale(1.177118146002449)" light-content="false" non-strokable="false" fill="#ffffff"><path d="M81.177 38.165a30.451 30.451 0 0 1-2.759 12.152C87.427 51.818 87.5 59.155 87.5 62.5c0 3.101 0 12.5-12.488 12.5H62.5c-8.143 0-15.43 3.931-19.995 10.01C39.478 82.715 37.5 79.077 37.5 75V62.5c0-2.472.439-4.419 1.123-6.024-.366-.067-.732-.226-1.123-.226H25.635a30.57 30.57 0 0 0-.623 6.25V75c0 13.807 11.182 25 24.988 25 0-6.909 5.591-12.5 12.5-12.5h12.512C87.5 87.5 100 80.469 100 62.5c0-15.289-8.691-22.375-18.823-24.335z"></path><path d="M50 12.5c4.663 0 12.5 1.623 12.5 12.5v12.5c0 4.09-1.978 7.721-5.005 10.004C52.93 41.437 45.654 37.5 37.5 37.5H25.012C12.5 37.5 12.5 28.095 12.5 25c0-3.735 0-12.5 12.512-12.5H50M50 0H25.012C12.5 0 0 6.641 0 25c0 17.969 12.5 25 25.012 25H37.5C44.409 50 50 55.604 50 62.5c13.807 0 25.012-11.193 25.012-25V25C75.012 7.745 62.5 0 50 0z"></path></g><g id="SvgjsG59562" class="text" transform="translate(268.87427665859576, 81.44437743652216) scale(1)" light-content="false" fill="#ffffff"><path d="M-65.62 -40.89C-66.63 -41.26 -67.51 -41.45 -68.26 -41.45C-69 -41.45 -69.63 -41.25 -70.13 -40.86C-70.64 -40.47 -70.98 -40.06 -71.17 -39.65C-71.36 -39.24 -71.6 -38.61 -71.9 -37.75L-78.07 -18.9L-84.52 -38.36C-84.74 -38.96 -85.27 -39.57 -86.09 -40.18C-86.91 -40.8 -87.8 -41.11 -88.75 -41.11C-89.71 -41.11 -90.48 -40.98 -91.08 -40.72C-92.47 -40.12 -93.42 -39.04 -93.94 -37.46L-100.06 -19.01L-106.22 -37.75C-106.6 -38.98 -107.02 -39.9 -107.49 -40.49C-107.95 -41.09 -108.63 -41.39 -109.51 -41.39C-110.38 -41.39 -111.37 -41.2 -112.45 -40.83C-114.96 -39.97 -116.21 -38.79 -116.21 -37.3C-116.21 -36.7 -116 -35.78 -115.59 -34.55L-104.77 -3.42L-104.37 -2.58C-104.11 -2.02 -103.6 -1.46 -102.83 -0.9C-102.07 -0.34 -101.08 -0.06 -99.89 -0.06C-98.69 -0.06 -97.66 -0.49 -96.8 -1.35C-96.47 -1.68 -96.17 -2.06 -95.91 -2.47C-95.64 -2.88 -95.48 -3.2 -95.4 -3.42C-95.33 -3.65 -93.21 -9.89 -89.06 -22.15L-82.5 -2.8C-82.24 -2.21 -81.71 -1.6 -80.9 -0.98C-80.1 -0.36 -79.15 -0.06 -78.04 -0.06C-76.94 -0.06 -75.99 -0.36 -75.18 -0.98C-74.38 -1.6 -73.88 -2.09 -73.7 -2.47C-73.51 -2.84 -73.38 -3.16 -73.3 -3.42L-62.53 -34.55C-62.09 -35.89 -61.86 -36.81 -61.86 -37.3C-61.86 -38.79 -63.11 -39.99 -65.62 -40.89Z M-54.85 -24.62L-54.85 -4.94C-54.85 -4.04 -54.82 -3.38 -54.77 -2.97C-54.71 -2.56 -54.55 -2.08 -54.29 -1.51C-53.77 -0.5 -52.33 0 -49.97 0C-47.58 0 -46.14 -0.49 -45.65 -1.46C-45.35 -2.02 -45.18 -2.51 -45.12 -2.94C-45.06 -3.37 -45.04 -4.02 -45.04 -4.88L-45.04 -24.51C-45.04 -25.22 -45.05 -25.76 -45.09 -26.14C-45.13 -27.22 -45.47 -28.02 -46.1 -28.55C-46.85 -29.18 -48.12 -29.5 -49.92 -29.5C-52.31 -29.5 -53.77 -29.01 -54.29 -28.04C-54.55 -27.48 -54.71 -26.99 -54.77 -26.56C-54.82 -26.13 -54.85 -25.48 -54.85 -24.62ZM-47.11 -33.88C-46.4 -34.1 -45.91 -34.48 -45.63 -35.02C-45.34 -35.57 -45.18 -36.05 -45.12 -36.48C-45.06 -36.91 -45.04 -37.56 -45.04 -38.42C-45.04 -39.28 -45.06 -39.92 -45.12 -40.35C-45.18 -40.78 -45.35 -41.28 -45.65 -41.84C-46.14 -42.85 -47.56 -43.35 -49.92 -43.35C-52.31 -43.35 -53.77 -42.85 -54.29 -41.84C-54.55 -41.32 -54.71 -40.84 -54.77 -40.41C-54.82 -39.98 -54.85 -39.33 -54.85 -38.47C-54.85 -37.61 -54.82 -36.97 -54.77 -36.54C-54.71 -36.11 -54.54 -35.61 -54.26 -35.05C-53.98 -34.49 -53.49 -34.1 -52.78 -33.88C-52.07 -33.65 -51.12 -33.54 -49.94 -33.54C-48.77 -33.54 -47.82 -33.65 -47.11 -33.88Z M-18.51 -29.56C-20.04 -29.56 -21.44 -29.13 -22.71 -28.27C-23.2 -27.97 -23.71 -27.58 -24.23 -27.09C-24.75 -26.6 -25.09 -26.23 -25.24 -25.97C-25.24 -26.86 -25.43 -27.63 -25.8 -28.27C-26.32 -29.13 -27.72 -29.56 -30.01 -29.56C-32.36 -29.56 -33.8 -29.09 -34.32 -28.15C-34.62 -27.63 -34.8 -27.15 -34.86 -26.72C-34.91 -26.29 -34.94 -25.67 -34.94 -24.85L-34.94 -4.99C-34.94 -4.13 -34.91 -3.49 -34.86 -3.06C-34.8 -2.63 -34.64 -2.13 -34.38 -1.57C-33.86 -0.56 -32.42 -0.06 -30.06 -0.06C-27.67 -0.06 -26.23 -0.56 -25.74 -1.57C-25.44 -2.09 -25.27 -2.57 -25.21 -3C-25.15 -3.43 -25.13 -4.08 -25.13 -4.94L-25.13 -14.86C-25.13 -16.32 -24.67 -17.5 -23.75 -18.4C-22.84 -19.29 -21.64 -19.74 -20.16 -19.74C-18.69 -19.74 -17.51 -19.31 -16.63 -18.45C-15.75 -17.59 -15.31 -16.4 -15.31 -14.86L-15.31 -4.99C-15.31 -3.72 -15.2 -2.77 -14.97 -2.13C-14.56 -0.75 -13.03 -0.06 -10.38 -0.06C-7.98 -0.06 -6.52 -0.56 -6 -1.57C-5.74 -2.09 -5.58 -2.57 -5.52 -3C-5.47 -3.43 -5.44 -4.08 -5.44 -4.94L-5.44 -14.81C-5.44 -18.92 -6.68 -22.41 -9.17 -25.27C-11.66 -28.13 -14.77 -29.56 -18.51 -29.56Z M22.04 -14.81L27.59 -19.52C28.98 -20.68 29.67 -21.69 29.67 -22.55C29.67 -23.41 29.06 -24.59 27.85 -26.11C26.63 -27.62 25.56 -28.38 24.62 -28.38C23.69 -28.38 22.56 -27.87 21.26 -26.86L20.58 -26.42C19.91 -25.86 18.89 -24.9 17.53 -23.56C16.16 -22.21 15.14 -21.26 14.47 -20.7L14.47 -38.47C14.47 -39.18 14.45 -39.71 14.41 -40.04C14.38 -41.17 14.04 -41.99 13.4 -42.51C12.66 -43.15 11.39 -43.47 9.59 -43.47C7.2 -43.47 5.74 -42.96 5.22 -41.95C4.95 -41.39 4.8 -40.9 4.74 -40.47C4.68 -40.04 4.66 -39.39 4.66 -38.53L4.66 -4.94C4.66 -4.08 4.68 -3.43 4.74 -3C4.8 -2.57 4.95 -2.08 5.22 -1.51C5.74 -0.5 7.18 0 9.53 0C11.93 0 13.37 -0.49 13.85 -1.46C14.15 -2.02 14.33 -2.51 14.39 -2.94C14.44 -3.37 14.47 -4.02 14.47 -4.88L14.47 -9.2C15.4 -8.45 16.77 -7.19 18.56 -5.41C20.36 -3.64 21.69 -2.39 22.55 -1.68L23.11 -1.29C24.57 -0.21 25.71 0.34 26.53 0.34C27.5 0.34 28.62 -0.45 29.89 -2.02C31.05 -3.55 31.63 -4.77 31.63 -5.66C31.63 -6.04 31.51 -6.43 31.27 -6.84C31.02 -7.25 30.44 -7.85 29.5 -8.64Z M68.82 -40.83C68.11 -40.61 67.56 -40.19 67.19 -39.6C66.82 -39 66.63 -37.97 66.63 -36.51L66.63 -19.35C66.63 -16.69 65.96 -14.36 64.61 -12.34C63.26 -10.32 61.23 -9.31 58.5 -9.31C56.96 -9.31 55.64 -9.63 54.51 -10.26C53.39 -10.9 52.55 -11.74 51.99 -12.79C50.87 -14.84 50.31 -17.01 50.31 -19.29L50.31 -36.12C50.31 -37.61 50.08 -38.79 49.64 -39.65C49.37 -40.21 48.89 -40.61 48.18 -40.83C47.47 -41.05 46.51 -41.17 45.32 -41.17C44.12 -41.17 43.17 -41.05 42.46 -40.83C41.75 -40.61 41.24 -40.21 40.94 -39.65C40.64 -39.09 40.47 -38.6 40.41 -38.17C40.35 -37.74 40.33 -37.07 40.33 -36.17L40.33 -19.29C40.33 -14.28 41.84 -9.8 44.87 -5.83C46.33 -3.89 48.22 -2.32 50.56 -1.12C52.9 0.07 55.5 0.67 58.36 0.67C61.22 0.67 63.82 0.08 66.18 -1.09C68.54 -2.27 70.46 -3.81 71.96 -5.72C75.02 -9.76 76.56 -14.25 76.56 -19.18L76.56 -36.12C76.56 -37.43 76.44 -38.4 76.22 -39.04C76.07 -39.56 75.83 -39.95 75.49 -40.21C75.15 -40.47 74.67 -40.7 74.03 -40.89C73.4 -41.07 72.55 -41.17 71.48 -41.17C70.41 -41.17 69.53 -41.05 68.82 -40.83Z M86.65 8.02C86.65 8.88 86.68 9.52 86.74 9.93C86.79 10.34 86.96 10.81 87.24 11.33C87.52 11.85 88.01 12.23 88.7 12.45C89.39 12.68 90.32 12.79 91.47 12.79C92.63 12.79 93.55 12.68 94.22 12.45C94.9 12.23 95.37 11.84 95.65 11.3C95.93 10.76 96.1 10.28 96.16 9.87C96.21 9.46 96.24 8.82 96.24 7.96L96.24 -3.37C97.63 -1.65 99.85 -0.79 102.92 -0.79C105.98 -0.79 108.87 -2.22 111.58 -5.1C114.29 -7.98 115.65 -11.33 115.65 -15.14C115.65 -18.96 114.28 -22.3 111.55 -25.18C108.82 -28.06 105.93 -29.5 102.89 -29.5C99.84 -29.5 97.61 -28.53 96.19 -26.58C96.07 -27.56 95.67 -28.29 94.98 -28.8C94.29 -29.3 92.95 -29.56 90.97 -29.56C88.99 -29.56 87.74 -29.05 87.21 -28.04C86.95 -27.52 86.79 -27.05 86.74 -26.64C86.68 -26.23 86.65 -25.59 86.65 -24.73ZM96.47 -15.09C96.47 -16.28 96.9 -17.39 97.76 -18.4C98.62 -19.41 99.77 -19.91 101.21 -19.91C102.64 -19.91 103.81 -19.41 104.71 -18.42C105.61 -17.43 106.06 -16.32 106.06 -15.09C106.06 -13.85 105.58 -12.75 104.63 -11.78C103.67 -10.81 102.51 -10.32 101.15 -10.32C99.78 -10.32 98.66 -10.82 97.78 -11.81C96.91 -12.8 96.47 -13.89 96.47 -15.09Z"></path></g></g></g></svg>